<svg xmlns="http://www.w3.org/2000/svg" width="1280" height="800" viewBox="0 0 1280 800">
 <metadata>candidateId=ui.escape-project-progress.route-signature-a; status=review; selectedCandidate=null; runtimeAllowlist=[]</metadata>
 <defs><style>.n{fill:#102F38}.d{fill:#17353B}.p{fill:#F4E0AE;stroke:#17353B;stroke-width:5}.c{fill:#EAD8A8;stroke:#17353B;stroke-width:4}.s{fill:none;stroke:#168C84;stroke-width:2;stroke-dasharray:8 6}.o{fill:none;stroke:#E8682A;stroke-width:6}.i{fill:none;stroke:#17353B;stroke-width:7;stroke-linecap:round;stroke-linejoin:round}.h{fill:url(#h)}</style><pattern id="h" width="12" height="12" patternUnits="userSpaceOnUse" patternTransform="rotate(45)"><line x1="0" y1="0" x2="0" y2="12" stroke="#17353B" stroke-width="3" opacity=".35"/></pattern></defs>
 <rect class="n" width="1280" height="800"/><rect class="d" x="36" y="38" width="1208" height="724" rx="30" stroke="#4DB7BF" stroke-width="5"/><path class="o" d="M68 64h1144M68 736h1144"/>
 <rect class="p" x="68" y="86" width="1144" height="628" rx="24"/><g id="route-rail"><rect fill="#133F48" stroke="#4DB7BF" stroke-width="4" x="88" y="108" width="250" height="584" rx="20"/><g id="escape.smoke"><rect fill="#F3BE4D" stroke="#E8682A" stroke-width="6" x="106" y="126" width="214" height="88" rx="16"/><path class="i" d="M151 192v-28m-18-9q18-25 36 0m-22-24q15-26 30 0"/><rect class="s" x="196" y="144" width="98" height="38"/></g><g id="escape.radio"><rect class="c" x="106" y="234" width="214" height="88" rx="16"/><rect class="i" x="127" y="256" width="52" height="38" rx="5"/><path class="i" d="m132 276 9-8 10 15 10-13 8 6m-2-20 12-16"/><rect class="s" x="196" y="252" width="98" height="38"/></g><g id="escape.raft"><rect class="c" x="106" y="342" width="214" height="88" rx="16"/><path class="i" d="M126 393h58l-10 15h-38Zm29-39v38m2-35 24 31"/><rect class="s" x="196" y="360" width="98" height="38"/><rect class="h" x="276" y="400" width="26" height="18"/></g><g id="escape.flare"><rect class="c" x="106" y="450" width="214" height="88" rx="16"/><path class="i" d="m141 510 17-43m8 39 13-36"/><path fill="#F3BE4D" stroke="#17353B" stroke-width="5" d="m181 458 7 11 13-2-5 12 10 8-13 4-1 13-10-9-12 7 2-14-11-7 13-6Z"/><rect class="s" x="196" y="468" width="98" height="38"/><rect class="h" x="276" y="508" width="26" height="18"/></g><g id="escape.beacon"><rect class="c" x="106" y="558" width="214" height="88" rx="16"/><path class="i" d="m153 578-19 53m19-53 19 53m-30-19h22m-17-18h12"/><circle fill="#F3BE4D" stroke="#17353B" stroke-width="5" cx="153" cy="574" r="9"/><rect class="s" x="196" y="576" width="98" height="38"/><rect class="h" x="276" y="616" width="26" height="18"/></g></g>
 <g id="detail"><rect class="p" x="360" y="108" width="830" height="584" rx="22"/><rect class="s" x="390" y="132" width="500" height="54"/><rect class="c" x="930" y="126" width="226" height="122" rx="18" stroke="#E8682A" stroke-width="5"/><path class="i" d="M1042 221v-46m-30-10q30-38 60 0m-36-30q25-40 50 0"/>
 <path class="i" d="M416 260h692"/><g id="progress-stages"><circle fill="#168C84" cx="416" cy="260" r="22"/><circle fill="#168C84" cx="589" cy="260" r="22"/><circle fill="#168C84" cx="762" cy="260" r="22"/><path fill="#F3BE4D" stroke="#17353B" stroke-width="5" d="m935 234 26 26-26 26-26-26Z"/><circle fill="none" stroke="#17353B" stroke-width="5" stroke-dasharray="8 6" cx="1108" cy="260" r="22"/></g>
 <g id="tmp-safe-rects" class="s"><rect x="352" y="294" width="128" height="32"/><rect x="525" y="294" width="128" height="32"/><rect x="698" y="294" width="128" height="32"/><rect x="871" y="294" width="128" height="32"/><rect x="1044" y="294" width="128" height="32"/><rect x="458" y="365" width="84" height="48"/><rect x="648" y="365" width="84" height="48"/><rect x="838" y="365" width="84" height="48"/><rect x="548" y="486" width="282" height="56"/><rect x="960" y="490" width="174" height="54"/><rect x="410" y="614" width="214" height="36"/><rect x="724" y="614" width="164" height="36"/></g>
 <rect class="c" x="390" y="352" width="172" height="92" rx="15"/><rect class="c" x="580" y="352" width="172" height="92" rx="15"/><rect class="c" x="770" y="352" width="172" height="92" rx="15"/><rect fill="#D7E1D0" stroke="#17353B" stroke-width="4" x="390" y="466" width="470" height="104" rx="16"/><rect fill="#E8C6A0" stroke="#C9483A" stroke-width="4" x="880" y="466" width="280" height="104" rx="16"/><rect fill="#168C84" stroke="#17353B" stroke-width="4" x="390" y="600" width="294" height="64" rx="16"/><rect class="c" x="704" y="600" width="244" height="64" rx="16"/><rect class="h" x="968" y="600" width="192" height="64" rx="16"/></g>
</svg>