<svg xmlns="http://www.w3.org/2000/svg" width="1280" height="800" viewBox="0 0 1280 800"><metadata>{"assetId":"ui.ending-gallery","jobId":"job_20260824133802_f43c6431","status":"review","selectedCandidate":null,"rasterBodyText":"none","candidateId":"ui.ending-gallery.card-index-b"}</metadata><rect x="20" y="20" width="1240" height="760" rx="28" fill="#102F38" stroke="#62C7C5" stroke-width="5" stroke-linejoin="round" stroke-linecap="round"/><polyline points="52,56 1228,56" fill="none" stroke="#F06B2D" stroke-width="5" stroke-linejoin="round" stroke-linecap="round" opacity="1.000"/><polyline points="78,74 640,74 640,118 78,118 78,74" fill="none" stroke="#F3BC4D" stroke-width="2" stroke-linejoin="round" stroke-linecap="round" opacity="1.000" stroke-dasharray="9 6"/><rect x="1150" y="72" width="52" height="52" rx="12" fill="#F3BC4D" stroke="#08242C" stroke-width="3" stroke-linejoin="round" stroke-linecap="round"/><ellipse cx="1176.0" cy="98.0" rx="12.0" ry="12.0" fill="none" stroke="#08242C" stroke-width="5" stroke-linejoin="round" stroke-linecap="round"/><rect x="70" y="134" width="270" height="60" rx="12" fill="#FFF0C9" stroke="#2D9B96" stroke-width="4" stroke-linejoin="round" stroke-linecap="round"/><rect x="86" y="150" width="28" height="28" rx="4.760000000000001" fill="none" stroke="#2D9B96" stroke-width="3" stroke-linejoin="round" stroke-linecap="round"/><rect x="91" y="155" width="18" height="18" rx="3.36" fill="none" stroke="#2D9B96" stroke-width="1.5" stroke-linejoin="round" stroke-linecap="round"/><polyline points="126,149 322,149 322,179 126,179 126,149" fill="none" stroke="#2D9B96" stroke-width="1.5" stroke-linejoin="round" stroke-linecap="round" opacity="1.000" stroke-dasharray="7 5"/><rect x="350" y="134" width="270" height="60" rx="12" fill="#FFF0C9" stroke="#F06B2D" stroke-width="4" stroke-linejoin="round" stroke-linecap="round"/><polygon points="380.0,147.76 383.8574489982401,154.68729431228624 391.48341412646954,152.51658587353046 389.3127056877138,160.1425510017599 396.24,164.0 389.3127056877138,167.8574489982401 391.48341412646954,175.48341412646954 383.8574489982401,173.31270568771376 380.0,180.24 376.1425510017599,173.31270568771376 368.51658587353046,175.48341412646954 370.6872943122862,167.8574489982401 363.76,164.0 370.6872943122862,160.1425510017599 368.51658587353046,152.51658587353046 376.1425510017599,154.68729431228624" fill="none" stroke="#F06B2D" stroke-width="3" stroke-linejoin="round" stroke-linecap="round"/><ellipse cx="372.72" cy="172.12" rx="2.5" ry="2.5" fill="#F06B2D"/><ellipse cx="380.0" cy="172.12" rx="2.5" ry="2.5" fill="#F06B2D"/><ellipse cx="387.28" cy="172.12" rx="2.5" ry="2.5" fill="#F06B2D"/><polyline points="406,149 602,149 602,179 406,179 406,149" fill="none" stroke="#F06B2D" stroke-width="1.5" stroke-linejoin="round" stroke-linecap="round" opacity="1.000" stroke-dasharray="7 5"/><rect x="630" y="134" width="240" height="60" rx="12" fill="#FFF0C9" stroke="#F3BC4D" stroke-width="4" stroke-linejoin="round" stroke-linecap="round"/><polygon points="660.0,150.0 663.7030470894426,158.90319293543783 673.3147912281321,159.67376207875074 665.9916560526594,165.94680706456217 668.2289935320946,175.32623792124926 660.0,170.3 651.7710064679054,175.32623792124926 654.0083439473406,165.94680706456217 646.6852087718678,159.67376207875074 656.2969529105574,158.90319293543783" fill="none" stroke="#F3BC4D" stroke-width="3" stroke-linejoin="round" stroke-linecap="round"/><polyline points="676.52,164.0 679.88,164.0" fill="none" stroke="#F3BC4D" stroke-width="2" stroke-linejoin="round" stroke-linecap="round" opacity="1.000"/><polyline points="671.6814040252018,175.68140402520177 674.0572828099886,178.05728280998858" fill="none" stroke="#F3BC4D" stroke-width="2" stroke-linejoin="round" stroke-linecap="round" opacity="1.000"/><polyline points="660.0,180.52 660.0,183.88" fill="none" stroke="#F3BC4D" stroke-width="2" stroke-linejoin="round" stroke-linecap="round" opacity="1.000"/><polyline points="648.3185959747982,175.68140402520177 645.9427171900114,178.05728280998858" fill="none" stroke="#F3BC4D" stroke-width="2" stroke-linejoin="round" stroke-linecap="round" opacity="1.000"/><polyline points="643.48,164.0 640.12,164.0" fill="none" stroke="#F3BC4D" stroke-width="2" stroke-linejoin="round" stroke-linecap="round" opacity="1.000"/><polyline points="648.3185959747982,152.31859597479823 645.9427171900114,149.94271719001145" fill="none" stroke="#F3BC4D" stroke-width="2" stroke-linejoin="round" stroke-linecap="round" opacity="1.000"/><polyline points="660.0,147.48 660.0,144.12" fill="none" stroke="#F3BC4D" stroke-width="2" stroke-linejoin="round" stroke-linecap="round" opacity="1.000"/><polyline points="671.6814040252018,152.31859597479823 674.0572828099886,149.94271719001142" fill="none" stroke="#F3BC4D" stroke-width="2" stroke-linejoin="round" stroke-linecap="round" opacity="1.000"/><polyline points="686,149 852,149 852,179 686,179 686,149" fill="none" stroke="#F3BC4D" stroke-width="1.5" stroke-linejoin="round" stroke-linecap="round" opacity="1.000" stroke-dasharray="7 5"/><rect x="880" y="134" width="270" height="60" rx="12" fill="#FFF0C9" stroke="#6E8582" stroke-width="4" stroke-linejoin="round" stroke-linecap="round"/><rect x="896" y="150" width="28" height="28" rx="2" fill="none" stroke="#6E8582" stroke-width="3" stroke-linejoin="round" stroke-linecap="round"/><polyline points="899.92,153.92 920.08,153.92 920.08,174.08 899.92,174.08 899.92,153.92" fill="none" stroke="#6E8582" stroke-width="2" stroke-linejoin="round" stroke-linecap="round" opacity="1.000" stroke-dasharray="4 4"/><polyline points="898.0,168.9 908.0,173.1" fill="none" stroke="#6E8582" stroke-width="1.5" stroke-linejoin="round" stroke-linecap="round" opacity="1.000"/><polyline points="905,168.9 915,173.1" fill="none" stroke="#6E8582" stroke-width="1.5" stroke-linejoin="round" stroke-linecap="round" opacity="1.000"/><polyline points="912.0,168.9 922.0,173.1" fill="none" stroke="#6E8582" stroke-width="1.5" stroke-linejoin="round" stroke-linecap="round" opacity="1.000"/><polyline points="936,149 1132,149 1132,179 936,179 936,149" fill="none" stroke="#6E8582" stroke-width="1.5" stroke-linejoin="round" stroke-linecap="round" opacity="1.000" stroke-dasharray="7 5"/><rect x="70" y="216" width="206" height="84" rx="12" fill="#FFF0C9" stroke="#2D9B96" stroke-width="3" stroke-linejoin="round" stroke-linecap="round"/><rect x="75" y="221" width="196" height="74" rx="10" fill="none" stroke="#2D9B96" stroke-width="1.5" stroke-linejoin="round" stroke-linecap="round"/><ellipse cx="121.70000000000002" cy="232.5512" rx="20.900000000000013" ry="4.479199999999992" fill="#F3BC4D"/><polyline points="93.2,253.3184 131.2,246.39600000000002 165.4,251.6896 207.20000000000002,241.1024 249.0,249.2464" fill="none" stroke="#2D9B96" stroke-width="3" stroke-linejoin="round" stroke-linecap="round" opacity="1.000"/><polygon points="150.2,249.2464 199.60000000000002,249.2464 180.60000000000002,241.1024" fill="#F06B2D" stroke="#08242C" stroke-width="2" stroke-linejoin="round" stroke-linecap="round"/><polyline points="176.8,241.1024 176.8,234.5872" fill="none" stroke="#08242C" stroke-width="2" stroke-linejoin="round" stroke-linecap="round" opacity="1.000"/><polyline points="80,268.72 266,268.72 266,290 80,290 80,268.72" fill="none" stroke="#2D9B96" stroke-width="1.5" stroke-linejoin="round" stroke-linecap="round" opacity="1.000" stroke-dasharray="5 4"/><rect x="296" y="216" width="206" height="84" rx="12" fill="#FFF0C9" stroke="#2D9B96" stroke-width="3" stroke-linejoin="round" stroke-linecap="round"/><rect x="301" y="221" width="196" height="74" rx="10" fill="none" stroke="#2D9B96" stroke-width="1.5" stroke-linejoin="round" stroke-linecap="round"/><ellipse cx="347.70000000000005" cy="232.5512" rx="20.900000000000006" ry="4.479199999999992" fill="#F3BC4D"/><polyline points="319.2,253.3184 357.2,246.39600000000002 391.4,251.6896 433.20000000000005,241.1024 475.0,249.2464" fill="none" stroke="#2D9B96" stroke-width="3" stroke-linejoin="round" stroke-linecap="round" opacity="1.000"/><rect x="380.0" y="238.252" width="41.80000000000001" height="13.437600000000003" rx="4" fill="#2D9B96" stroke="#08242C" stroke-width="2" stroke-linejoin="round" stroke-linecap="round"/><polyline points="400.9,238.252 429.4,233.7728" fill="none" stroke="#08242C" stroke-width="2" stroke-linejoin="round" stroke-linecap="round" opacity="1.000"/><polyline points="306,268.72 492,268.72 492,290 306,290 306,268.72" fill="none" stroke="#2D9B96" stroke-width="1.5" stroke-linejoin="round" stroke-linecap="round" opacity="1.000" stroke-dasharray="5 4"/><rect x="522" y="216" width="206" height="84" rx="12" fill="#173C43" stroke="#2D9B96" stroke-width="3" stroke-linejoin="round" stroke-linecap="round"/><rect x="527" y="221" width="196" height="74" rx="10" fill="none" stroke="#2D9B96" stroke-width="1.5" stroke-linejoin="round" stroke-linecap="round"/><ellipse cx="621.2" cy="240.4916" rx="41.80000000000001" ry="8.3476" fill="#34545A"/><rect x="598.4" y="245.9888" width="45.60000000000002" height="9.77279999999999" rx="4" fill="#34545A"/><polyline points="568.0,257.3904 682.0,231.3296" fill="none" stroke="#E6CE93" stroke-width="3" stroke-linejoin="round" stroke-linecap="round" opacity="1.000"/><polyline points="532,268.72 718,268.72 718,290 532,290 532,268.72" fill="none" stroke="#E6CE93" stroke-width="1.5" stroke-linejoin="round" stroke-linecap="round" opacity="1.000" stroke-dasharray="5 4"/><rect x="748" y="216" width="206" height="84" rx="12" fill="#173C43" stroke="#2D9B96" stroke-width="3" stroke-linejoin="round" stroke-linecap="round"/><rect x="753" y="221" width="196" height="74" rx="10" fill="none" stroke="#2D9B96" stroke-width="1.5" stroke-linejoin="round" stroke-linecap="round"/><ellipse cx="847.2" cy="240.4916" rx="41.80000000000001" ry="8.3476" fill="#34545A"/><rect x="824.4" y="245.9888" width="45.60000000000002" height="9.77279999999999" rx="4" fill="#34545A"/><polyline points="794.0,257.3904 908.0,231.3296" fill="none" stroke="#E6CE93" stroke-width="3" stroke-linejoin="round" stroke-linecap="round" opacity="1.000"/><polyline points="758,268.72 944,268.72 944,290 758,290 758,268.72" fill="none" stroke="#E6CE93" stroke-width="1.5" stroke-linejoin="round" stroke-linecap="round" opacity="1.000" stroke-dasharray="5 4"/><rect x="974" y="216" width="206" height="84" rx="12" fill="#173C43" stroke="#2D9B96" stroke-width="3" stroke-linejoin="round" stroke-linecap="round"/><rect x="979" y="221" width="196" height="74" rx="10" fill="none" stroke="#2D9B96" stroke-width="1.5" stroke-linejoin="round" stroke-linecap="round"/><ellipse cx="1073.2" cy="240.4916" rx="41.799999999999955" ry="8.3476" fill="#34545A"/><rect x="1050.4" y="245.9888" width="45.59999999999991" height="9.77279999999999" rx="4" fill="#34545A"/><polyline points="1020.0,257.3904 1134.0,231.3296" fill="none" stroke="#E6CE93" stroke-width="3" stroke-linejoin="round" stroke-linecap="round" opacity="1.000"/><polyline points="984,268.72 1170,268.72 1170,290 984,290 984,268.72" fill="none" stroke="#E6CE93" stroke-width="1.5" stroke-linejoin="round" stroke-linecap="round" opacity="1.000" stroke-dasharray="5 4"/><rect x="70" y="312" width="206" height="84" rx="9" fill="#173C43" stroke="#F06B2D" stroke-width="3" stroke-linejoin="round" stroke-linecap="round"/><polygon points="78,312 85,307 92,312 254,312 261,307 268,312" fill="#F06B2D"/><ellipse cx="260.5" cy="384.5" rx="2.5" ry="2.5" fill="#F06B2D"/><ellipse cx="252.5" cy="384.5" rx="2.5" ry="2.5" fill="#F06B2D"/><ellipse cx="244.5" cy="384.5" rx="2.5" ry="2.5" fill="#F06B2D"/><ellipse cx="169.2" cy="336.4916" rx="41.8" ry="8.3476" fill="#34545A"/><rect x="146.39999999999998" y="341.9888" width="45.60000000000002" height="9.772799999999961" rx="4" fill="#34545A"/><polyline points="116.0,353.3904 230.0,327.3296" fill="none" stroke="#E6CE93" stroke-width="3" stroke-linejoin="round" stroke-linecap="round" opacity="1.000"/><polyline points="80,364.72 266,364.72 266,386 80,386 80,364.72" fill="none" stroke="#E6CE93" stroke-width="1.5" stroke-linejoin="round" stroke-linecap="round" opacity="1.000" stroke-dasharray="5 4"/><rect x="296" y="312" width="206" height="84" rx="9" fill="#FFF0C9" stroke="#F06B2D" stroke-width="5" stroke-linejoin="round" stroke-linecap="round"/><polygon points="304,312 311,307 318,312 480,312 487,307 494,312" fill="#F06B2D"/><ellipse cx="486.5" cy="384.5" rx="2.5" ry="2.5" fill="#F06B2D"/><ellipse cx="478.5" cy="384.5" rx="2.5" ry="2.5" fill="#F06B2D"/><ellipse cx="470.5" cy="384.5" rx="2.5" ry="2.5" fill="#F06B2D"/><ellipse cx="347.70000000000005" cy="328.5512" rx="20.900000000000006" ry="4.479199999999992" fill="#F3BC4D"/><polyline points="319.2,349.3184 357.2,342.396 391.4,347.6896 433.20000000000005,337.1024 475.0,345.2464" fill="none" stroke="#2D9B96" stroke-width="3" stroke-linejoin="round" stroke-linecap="round" opacity="1.000"/><polygon points="376.2,345.2464 425.6,345.2464 406.6,337.1024" fill="#F3BC4D" stroke="#08242C" stroke-width="2" stroke-linejoin="round" stroke-linecap="round"/><polyline points="402.8,337.1024 402.8,330.5872" fill="none" stroke="#08242C" stroke-width="2" stroke-linejoin="round" stroke-linecap="round" opacity="1.000"/><polyline points="306,364.72 492,364.72 492,386 306,386 306,364.72" fill="none" stroke="#2D9B96" stroke-width="1.5" stroke-linejoin="round" stroke-linecap="round" opacity="1.000" stroke-dasharray="5 4"/><rect x="522" y="312" width="206" height="84" rx="9" fill="#173C43" stroke="#F06B2D" stroke-width="3" stroke-linejoin="round" stroke-linecap="round"/><polygon points="530,312 537,307 544,312 706,312 713,307 720,312" fill="#F06B2D"/><ellipse cx="712.5" cy="384.5" rx="2.5" ry="2.5" fill="#F06B2D"/><ellipse cx="704.5" cy="384.5" rx="2.5" ry="2.5" fill="#F06B2D"/><ellipse cx="696.5" cy="384.5" rx="2.5" ry="2.5" fill="#F06B2D"/><ellipse cx="621.2" cy="336.4916" rx="41.80000000000001" ry="8.3476" fill="#34545A"/><rect x="598.4" y="341.9888" width="45.60000000000002" height="9.772799999999961" rx="4" fill="#34545A"/><polyline points="568.0,353.3904 682.0,327.3296" fill="none" stroke="#E6CE93" stroke-width="3" stroke-linejoin="round" stroke-linecap="round" opacity="1.000"/><polyline points="532,364.72 718,364.72 718,386 532,386 532,364.72" fill="none" stroke="#E6CE93" stroke-width="1.5" stroke-linejoin="round" stroke-linecap="round" opacity="1.000" stroke-dasharray="5 4"/><rect x="748" y="312" width="206" height="84" rx="9" fill="#173C43" stroke="#F06B2D" stroke-width="3" stroke-linejoin="round" stroke-linecap="round"/><polygon points="756,312 763,307 770,312 932,312 939,307 946,312" fill="#F06B2D"/><ellipse cx="938.5" cy="384.5" rx="2.5" ry="2.5" fill="#F06B2D"/><ellipse cx="930.5" cy="384.5" rx="2.5" ry="2.5" fill="#F06B2D"/><ellipse cx="922.5" cy="384.5" rx="2.5" ry="2.5" fill="#F06B2D"/><ellipse cx="847.2" cy="336.4916" rx="41.80000000000001" ry="8.3476" fill="#34545A"/><rect x="824.4" y="341.9888" width="45.60000000000002" height="9.772799999999961" rx="4" fill="#34545A"/><polyline points="794.0,353.3904 908.0,327.3296" fill="none" stroke="#E6CE93" stroke-width="3" stroke-linejoin="round" stroke-linecap="round" opacity="1.000"/><polyline points="758,364.72 944,364.72 944,386 758,386 758,364.72" fill="none" stroke="#E6CE93" stroke-width="1.5" stroke-linejoin="round" stroke-linecap="round" opacity="1.000" stroke-dasharray="5 4"/><rect x="974" y="312" width="206" height="84" rx="9" fill="#173C43" stroke="#F06B2D" stroke-width="3" stroke-linejoin="round" stroke-linecap="round"/><polygon points="982,312 989,307 996,312 1158,312 1165,307 1172,312" fill="#F06B2D"/><ellipse cx="1164.5" cy="384.5" rx="2.5" ry="2.5" fill="#F06B2D"/><ellipse cx="1156.5" cy="384.5" rx="2.5" ry="2.5" fill="#F06B2D"/><ellipse cx="1148.5" cy="384.5" rx="2.5" ry="2.5" fill="#F06B2D"/><ellipse cx="1073.2" cy="336.4916" rx="41.799999999999955" ry="8.3476" fill="#34545A"/><rect x="1050.4" y="341.9888" width="45.59999999999991" height="9.772799999999961" rx="4" fill="#34545A"/><polyline points="1020.0,353.3904 1134.0,327.3296" fill="none" stroke="#E6CE93" stroke-width="3" stroke-linejoin="round" stroke-linecap="round" opacity="1.000"/><polyline points="984,364.72 1170,364.72 1170,386 984,386 984,364.72" fill="none" stroke="#E6CE93" stroke-width="1.5" stroke-linejoin="round" stroke-linecap="round" opacity="1.000" stroke-dasharray="5 4"/><rect x="70" y="408" width="206" height="84" rx="9" fill="#173C43" stroke="#F3BC4D" stroke-width="3" stroke-linejoin="round" stroke-linecap="round"/><polygon points="83.0,412.0 85.3511410091699,417.7639320225002 91.55950864665638,418.21884705062547 86.80422606518061,422.2360679774998 88.29006727063226,428.28115294937453 83.0,425.0 77.70993272936774,428.28115294937453 79.19577393481939,422.2360679774998 74.44049135334362,418.21884705062547 80.6488589908301,417.7639320225002" fill="#F3BC4D"/><polyline points="255,415 268,428" fill="none" stroke="#F3BC4D" stroke-width="2" stroke-linejoin="round" stroke-linecap="round" opacity="1.000"/><polyline points="260,412 271,423" fill="none" stroke="#F3BC4D" stroke-width="2" stroke-linejoin="round" stroke-linecap="round" opacity="1.000"/><ellipse cx="169.2" cy="432.4916" rx="41.8" ry="8.3476" fill="#34545A"/><rect x="146.39999999999998" y="437.9888" width="45.60000000000002" height="9.772799999999961" rx="4" fill="#34545A"/><polyline points="116.0,449.3904 230.0,423.3296" fill="none" stroke="#E6CE93" stroke-width="3" stroke-linejoin="round" stroke-linecap="round" opacity="1.000"/><polyline points="80,460.72 266,460.72 266,482 80,482 80,460.72" fill="none" stroke="#E6CE93" stroke-width="1.5" stroke-linejoin="round" stroke-linecap="round" opacity="1.000" stroke-dasharray="5 4"/><rect x="296" y="408" width="206" height="84" rx="9" fill="#173C43" stroke="#F3BC4D" stroke-width="3" stroke-linejoin="round" stroke-linecap="round"/><polygon points="309.0,412.0 311.3511410091699,417.7639320225002 317.55950864665635,418.21884705062547 312.8042260651806,422.2360679774998 314.2900672706323,428.28115294937453 309.0,425.0 303.7099327293677,428.28115294937453 305.1957739348194,422.2360679774998 300.44049135334365,418.21884705062547 306.6488589908301,417.7639320225002" fill="#F3BC4D"/><polyline points="481,415 494,428" fill="none" stroke="#F3BC4D" stroke-width="2" stroke-linejoin="round" stroke-linecap="round" opacity="1.000"/><polyline points="486,412 497,423" fill="none" stroke="#F3BC4D" stroke-width="2" stroke-linejoin="round" stroke-linecap="round" opacity="1.000"/><ellipse cx="395.2" cy="432.4916" rx="41.80000000000001" ry="8.3476" fill="#34545A"/><rect x="372.4" y="437.9888" width="45.60000000000002" height="9.772799999999961" rx="4" fill="#34545A"/><polyline points="342.0,449.3904 456.0,423.3296" fill="none" stroke="#E6CE93" stroke-width="3" stroke-linejoin="round" stroke-linecap="round" opacity="1.000"/><polyline points="306,460.72 492,460.72 492,482 306,482 306,460.72" fill="none" stroke="#E6CE93" stroke-width="1.5" stroke-linejoin="round" stroke-linecap="round" opacity="1.000" stroke-dasharray="5 4"/><rect x="522" y="408" width="206" height="84" rx="9" fill="#173C43" stroke="#F3BC4D" stroke-width="3" stroke-linejoin="round" stroke-linecap="round"/><polygon points="535.0,412.0 537.3511410091699,417.7639320225002 543.5595086466564,418.21884705062547 538.8042260651806,422.2360679774998 540.2900672706322,428.28115294937453 535.0,425.0 529.7099327293678,428.28115294937453 531.1957739348194,422.2360679774998 526.4404913533436,418.21884705062547 532.6488589908301,417.7639320225002" fill="#F3BC4D"/><polyline points="707,415 720,428" fill="none" stroke="#F3BC4D" stroke-width="2" stroke-linejoin="round" stroke-linecap="round" opacity="1.000"/><polyline points="712,412 723,423" fill="none" stroke="#F3BC4D" stroke-width="2" stroke-linejoin="round" stroke-linecap="round" opacity="1.000"/><ellipse cx="621.2" cy="432.4916" rx="41.80000000000001" ry="8.3476" fill="#34545A"/><rect x="598.4" y="437.9888" width="45.60000000000002" height="9.772799999999961" rx="4" fill="#34545A"/><polyline points="568.0,449.3904 682.0,423.3296" fill="none" stroke="#E6CE93" stroke-width="3" stroke-linejoin="round" stroke-linecap="round" opacity="1.000"/><polyline points="532,460.72 718,460.72 718,482 532,482 532,460.72" fill="none" stroke="#E6CE93" stroke-width="1.5" stroke-linejoin="round" stroke-linecap="round" opacity="1.000" stroke-dasharray="5 4"/><rect x="748" y="408" width="206" height="84" rx="9" fill="#173C43" stroke="#F3BC4D" stroke-width="3" stroke-linejoin="round" stroke-linecap="round"/><polygon points="761.0,412.0 763.3511410091699,417.7639320225002 769.5595086466564,418.21884705062547 764.8042260651806,422.2360679774998 766.2900672706322,428.28115294937453 761.0,425.0 755.7099327293678,428.28115294937453 757.1957739348194,422.2360679774998 752.4404913533436,418.21884705062547 758.6488589908301,417.7639320225002" fill="#F3BC4D"/><polyline points="933,415 946,428" fill="none" stroke="#F3BC4D" stroke-width="2" stroke-linejoin="round" stroke-linecap="round" opacity="1.000"/><polyline points="938,412 949,423" fill="none" stroke="#F3BC4D" stroke-width="2" stroke-linejoin="round" stroke-linecap="round" opacity="1.000"/><ellipse cx="847.2" cy="432.4916" rx="41.80000000000001" ry="8.3476" fill="#34545A"/><rect x="824.4" y="437.9888" width="45.60000000000002" height="9.772799999999961" rx="4" fill="#34545A"/><polyline points="794.0,449.3904 908.0,423.3296" fill="none" stroke="#E6CE93" stroke-width="3" stroke-linejoin="round" stroke-linecap="round" opacity="1.000"/><polyline points="758,460.72 944,460.72 944,482 758,482 758,460.72" fill="none" stroke="#E6CE93" stroke-width="1.5" stroke-linejoin="round" stroke-linecap="round" opacity="1.000" stroke-dasharray="5 4"/><rect x="974" y="408" width="206" height="84" rx="5" fill="#173C43" stroke="#6E8582" stroke-width="3" stroke-linejoin="round" stroke-linecap="round"/><polyline points="981,415 1173,415 1173,485 981,485 981,415" fill="none" stroke="#6E8582" stroke-width="2" stroke-linejoin="round" stroke-linecap="round" opacity="1.000" stroke-dasharray="5 4"/><polyline points="1152,474 1160,484" fill="none" stroke="#6E8582" stroke-width="1.5" stroke-linejoin="round" stroke-linecap="round" opacity="1.000"/><polyline points="1159,474 1167,484" fill="none" stroke="#6E8582" stroke-width="1.5" stroke-linejoin="round" stroke-linecap="round" opacity="1.000"/><polyline points="1166,474 1174,484" fill="none" stroke="#6E8582" stroke-width="1.5" stroke-linejoin="round" stroke-linecap="round" opacity="1.000"/><ellipse cx="1073.2" cy="432.4916" rx="41.799999999999955" ry="8.3476" fill="#34545A"/><rect x="1050.4" y="437.9888" width="45.59999999999991" height="9.772799999999961" rx="4" fill="#34545A"/><polyline points="1020.0,449.3904 1134.0,423.3296" fill="none" stroke="#E6CE93" stroke-width="3" stroke-linejoin="round" stroke-linecap="round" opacity="1.000"/><polyline points="984,460.72 1170,460.72 1170,482 984,482 984,460.72" fill="none" stroke="#E6CE93" stroke-width="1.5" stroke-linejoin="round" stroke-linecap="round" opacity="1.000" stroke-dasharray="5 4"/><rect x="70" y="504" width="206" height="84" rx="5" fill="#173C43" stroke="#6E8582" stroke-width="3" stroke-linejoin="round" stroke-linecap="round"/><polyline points="77,511 269,511 269,581 77,581 77,511" fill="none" stroke="#6E8582" stroke-width="2" stroke-linejoin="round" stroke-linecap="round" opacity="1.000" stroke-dasharray="5 4"/><polyline points="248,570 256,580" fill="none" stroke="#6E8582" stroke-width="1.5" stroke-linejoin="round" stroke-linecap="round" opacity="1.000"/><polyline points="255,570 263,580" fill="none" stroke="#6E8582" stroke-width="1.5" stroke-linejoin="round" stroke-linecap="round" opacity="1.000"/><polyline points="262,570 270,580" fill="none" stroke="#6E8582" stroke-width="1.5" stroke-linejoin="round" stroke-linecap="round" opacity="1.000"/><ellipse cx="169.2" cy="528.4916000000001" rx="41.8" ry="8.3476" fill="#34545A"/><rect x="146.39999999999998" y="533.9888" width="45.60000000000002" height="9.772800000000075" rx="4" fill="#34545A"/><polyline points="116.0,545.3904 230.0,519.3296" fill="none" stroke="#E6CE93" stroke-width="3" stroke-linejoin="round" stroke-linecap="round" opacity="1.000"/><polyline points="80,556.72 266,556.72 266,578 80,578 80,556.72" fill="none" stroke="#E6CE93" stroke-width="1.5" stroke-linejoin="round" stroke-linecap="round" opacity="1.000" stroke-dasharray="5 4"/><rect x="296" y="504" width="206" height="84" rx="5" fill="#173C43" stroke="#6E8582" stroke-width="3" stroke-linejoin="round" stroke-linecap="round"/><polyline points="303,511 495,511 495,581 303,581 303,511" fill="none" stroke="#6E8582" stroke-width="2" stroke-linejoin="round" stroke-linecap="round" opacity="1.000" stroke-dasharray="5 4"/><polyline points="474,570 482,580" fill="none" stroke="#6E8582" stroke-width="1.5" stroke-linejoin="round" stroke-linecap="round" opacity="1.000"/><polyline points="481,570 489,580" fill="none" stroke="#6E8582" stroke-width="1.5" stroke-linejoin="round" stroke-linecap="round" opacity="1.000"/><polyline points="488,570 496,580" fill="none" stroke="#6E8582" stroke-width="1.5" stroke-linejoin="round" stroke-linecap="round" opacity="1.000"/><ellipse cx="395.2" cy="528.4916000000001" rx="41.80000000000001" ry="8.3476" fill="#34545A"/><rect x="372.4" y="533.9888" width="45.60000000000002" height="9.772800000000075" rx="4" fill="#34545A"/><polyline points="342.0,545.3904 456.0,519.3296" fill="none" stroke="#E6CE93" stroke-width="3" stroke-linejoin="round" stroke-linecap="round" opacity="1.000"/><polyline points="306,556.72 492,556.72 492,578 306,578 306,556.72" fill="none" stroke="#E6CE93" stroke-width="1.5" stroke-linejoin="round" stroke-linecap="round" opacity="1.000" stroke-dasharray="5 4"/><rect x="522" y="504" width="206" height="84" rx="5" fill="#173C43" stroke="#6E8582" stroke-width="3" stroke-linejoin="round" stroke-linecap="round"/><polyline points="529,511 721,511 721,581 529,581 529,511" fill="none" stroke="#6E8582" stroke-width="2" stroke-linejoin="round" stroke-linecap="round" opacity="1.000" stroke-dasharray="5 4"/><polyline points="700,570 708,580" fill="none" stroke="#6E8582" stroke-width="1.5" stroke-linejoin="round" stroke-linecap="round" opacity="1.000"/><polyline points="707,570 715,580" fill="none" stroke="#6E8582" stroke-width="1.5" stroke-linejoin="round" stroke-linecap="round" opacity="1.000"/><polyline points="714,570 722,580" fill="none" stroke="#6E8582" stroke-width="1.5" stroke-linejoin="round" stroke-linecap="round" opacity="1.000"/><ellipse cx="621.2" cy="528.4916000000001" rx="41.80000000000001" ry="8.3476" fill="#34545A"/><rect x="598.4" y="533.9888" width="45.60000000000002" height="9.772800000000075" rx="4" fill="#34545A"/><polyline points="568.0,545.3904 682.0,519.3296" fill="none" stroke="#E6CE93" stroke-width="3" stroke-linejoin="round" stroke-linecap="round" opacity="1.000"/><polyline points="532,556.72 718,556.72 718,578 532,578 532,556.72" fill="none" stroke="#E6CE93" stroke-width="1.5" stroke-linejoin="round" stroke-linecap="round" opacity="1.000" stroke-dasharray="5 4"/><rect x="748" y="504" width="206" height="84" rx="5" fill="#FFF0C9" stroke="#6E8582" stroke-width="3" stroke-linejoin="round" stroke-linecap="round"/><polyline points="755,511 947,511 947,581 755,581 755,511" fill="none" stroke="#6E8582" stroke-width="2" stroke-linejoin="round" stroke-linecap="round" opacity="1.000" stroke-dasharray="5 4"/><polyline points="926,570 934,580" fill="none" stroke="#6E8582" stroke-width="1.5" stroke-linejoin="round" stroke-linecap="round" opacity="1.000"/><polyline points="933,570 941,580" fill="none" stroke="#6E8582" stroke-width="1.5" stroke-linejoin="round" stroke-linecap="round" opacity="1.000"/><polyline points="940,570 948,580" fill="none" stroke="#6E8582" stroke-width="1.5" stroke-linejoin="round" stroke-linecap="round" opacity="1.000"/><ellipse cx="799.7" cy="520.5512" rx="20.900000000000034" ry="4.479199999999992" fill="#F3BC4D"/><polyline points="771.2,541.3184 809.2,534.396 843.4,539.6896 885.2,529.1024 927.0,537.2464" fill="none" stroke="#2D9B96" stroke-width="3" stroke-linejoin="round" stroke-linecap="round" opacity="1.000"/><polygon points="828.2,537.2464 877.6,537.2464 858.6,529.1024" fill="#F3BC4D" stroke="#08242C" stroke-width="2" stroke-linejoin="round" stroke-linecap="round"/><polyline points="854.8,529.1024 854.8,522.5872" fill="none" stroke="#08242C" stroke-width="2" stroke-linejoin="round" stroke-linecap="round" opacity="1.000"/><polyline points="758,556.72 944,556.72 944,578 758,578 758,556.72" fill="none" stroke="#2D9B96" stroke-width="1.5" stroke-linejoin="round" stroke-linecap="round" opacity="1.000" stroke-dasharray="5 4"/><rect x="70" y="610" width="1140" height="122" rx="18" fill="#FFF0C9" stroke="#F06B2D" stroke-width="4" stroke-linejoin="round" stroke-linecap="round"/><rect x="88" y="626" width="162" height="88" rx="10" fill="#AFC39D" stroke="#2D9B96" stroke-width="3" stroke-linejoin="round" stroke-linecap="round"/><ellipse cx="131.74" cy="649.86" rx="15.180000000000007" ry="7.259999999999991" fill="#F3BC4D"/><polyline points="111.04,683.52 138.64,672.3 163.48000000000002,680.88 193.84,663.72 224.2,676.92" fill="none" stroke="#2D9B96" stroke-width="3" stroke-linejoin="round" stroke-linecap="round" opacity="1.000"/><polyline points="144.16,678.24 174.52,653.16 196.6,678.24" fill="none" stroke="#2D9B96" stroke-width="5" stroke-linejoin="round" stroke-linecap="round" opacity="1.000"/><ellipse cx="174.52" cy="654.48" rx="11.039999999999992" ry="5.279999999999973" fill="#FFF0C9" stroke="#08242C" stroke-width="2" stroke-linejoin="round" stroke-linecap="round"/><polyline points="276,626 592,626 592,660 276,660 276,626" fill="none" stroke="#2D9B96" stroke-width="2" stroke-linejoin="round" stroke-linecap="round" opacity="1.000" stroke-dasharray="8 5"/><polyline points="276,674 650,674 650,708 276,708 276,674" fill="none" stroke="#2D9B96" stroke-width="2" stroke-linejoin="round" stroke-linecap="round" opacity="1.000" stroke-dasharray="8 5"/><rect x="680" y="634" width="120" height="70" rx="12" fill="#F7E4B6" stroke="#102F38" stroke-width="3" stroke-linejoin="round" stroke-linecap="round"/><ellipse cx="704.0" cy="658.0" rx="12.0" ry="12.0" fill="#2D9B96"/><polyline points="724,648 788,648 788,688 724,688 724,648" fill="none" stroke="#2D9B96" stroke-width="1.5" stroke-linejoin="round" stroke-linecap="round" opacity="1.000" stroke-dasharray="5 4"/><rect x="816" y="634" width="120" height="70" rx="12" fill="#F7E4B6" stroke="#102F38" stroke-width="3" stroke-linejoin="round" stroke-linecap="round"/><ellipse cx="840.0" cy="658.0" rx="12.0" ry="12.0" fill="#F06B2D"/><polyline points="860,648 924,648 924,688 860,688 860,648" fill="none" stroke="#2D9B96" stroke-width="1.5" stroke-linejoin="round" stroke-linecap="round" opacity="1.000" stroke-dasharray="5 4"/><rect x="962" y="626" width="230" height="88" rx="14" fill="#2D9B96" stroke="#08242C" stroke-width="4" stroke-linejoin="round" stroke-linecap="round"/><polyline points="980,646 1114,646 1114,682 980,682 980,646" fill="none" stroke="#F7E4B6" stroke-width="2" stroke-linejoin="round" stroke-linecap="round" opacity="1.000" stroke-dasharray="7 5"/><rect x="1126" y="642" width="56" height="56" rx="12" fill="none" stroke="#F06B2D" stroke-width="4" stroke-linejoin="round" stroke-linecap="round"/><rect x="1132" y="648" width="44" height="44" rx="10" fill="#F3BC4D" stroke="#08242C" stroke-width="3" stroke-linejoin="round" stroke-linecap="round"/><ellipse cx="1154.0" cy="670.0" rx="9.0" ry="9.0" fill="none" stroke="#08242C" stroke-width="4" stroke-linejoin="round" stroke-linecap="round"/></svg>