<?xml version="1.0" encoding="UTF-8"?>
<svg xmlns="http://www.w3.org/2000/svg" width="512" height="512" viewBox="0 0 512 512">
<metadata>{"candidateId":"ui.camp-connection-slot-affordance.cutline-bracket","status":"review","rasterText":false}</metadata>
<g id="upper-idle" transform="translate(0 0)"><rect x="14" y="52" width="100" height="24" rx="3" fill="none" stroke="#e0b365" stroke-width="4" stroke-dasharray="10 6"/><path d="M14 65V52H27 M101 52H114V65 M114 63V76H101 M27 76H14V63" fill="none" stroke="#ffebba" stroke-width="3"/></g>
<g id="upper-near-focus" transform="translate(128 0)"><rect x="14" y="52" width="100" height="24" rx="3" fill="none" stroke="#4aced6" stroke-width="4" stroke-dasharray="10 6"/><path d="M14 65V52H27 M101 52H114V65 M114 63V76H101 M27 76H14V63" fill="none" stroke="#ffebba" stroke-width="3"/><rect x="6" y="44" width="116" height="40" fill="none" stroke="#4aced6" stroke-width="3" stroke-dasharray="18 8"/></g>
<g id="upper-preview-valid" transform="translate(256 0)"><rect x="14" y="52" width="100" height="24" rx="3" fill="none" stroke="#5be1ac" stroke-width="4" stroke-dasharray="10 6"/><path d="M14 65V52H27 M101 52H114V65 M114 63V76H101 M27 76H14V63" fill="none" stroke="#ffebba" stroke-width="3"/><path d="M54 68L64 58L74 68 M54 52L64 42L74 52" fill="none" stroke="#5be1ac" stroke-width="4"/></g>
<g id="upper-invalid" transform="translate(384 0)"><rect x="14" y="52" width="100" height="24" rx="3" fill="none" stroke="#ff5b5b" stroke-width="4" stroke-dasharray="10 6"/><path d="M14 65V52H27 M101 52H114V65 M114 63V76H101 M27 76H14V63" fill="none" stroke="#ffebba" stroke-width="3"/><path d="M20 58L108 70 M108 58L20 70" stroke="#ff5b5b" stroke-width="5"/></g>
<g id="side-idle" transform="translate(0 128)"><rect x="52" y="14" width="24" height="100" rx="3" fill="none" stroke="#e0b365" stroke-width="4" stroke-dasharray="10 6"/><path d="M52 27V14H65 M63 14H76V27 M76 101V114H63 M65 114H52V101" fill="none" stroke="#ffebba" stroke-width="3"/></g>
<g id="side-near-focus" transform="translate(128 128)"><rect x="52" y="14" width="24" height="100" rx="3" fill="none" stroke="#4aced6" stroke-width="4" stroke-dasharray="10 6"/><path d="M52 27V14H65 M63 14H76V27 M76 101V114H63 M65 114H52V101" fill="none" stroke="#ffebba" stroke-width="3"/><rect x="44" y="6" width="40" height="116" fill="none" stroke="#4aced6" stroke-width="3" stroke-dasharray="18 8"/></g>
<g id="side-preview-valid" transform="translate(256 128)"><rect x="52" y="14" width="24" height="100" rx="3" fill="none" stroke="#5be1ac" stroke-width="4" stroke-dasharray="10 6"/><path d="M52 27V14H65 M63 14H76V27 M76 101V114H63 M65 114H52V101" fill="none" stroke="#ffebba" stroke-width="3"/><path d="M50 54L60 64L50 74 M66 54L76 64L66 74" fill="none" stroke="#5be1ac" stroke-width="4"/></g>
<g id="side-invalid" transform="translate(384 128)"><rect x="52" y="14" width="24" height="100" rx="3" fill="none" stroke="#ff5b5b" stroke-width="4" stroke-dasharray="10 6"/><path d="M52 27V14H65 M63 14H76V27 M76 101V114H63 M65 114H52V101" fill="none" stroke="#ffebba" stroke-width="3"/><path d="M58 20L70 108 M70 20L58 108" stroke="#ff5b5b" stroke-width="5"/></g>
<g id="basement-idle" transform="translate(0 256)"><rect x="14" y="52" width="100" height="24" rx="3" fill="none" stroke="#e0b365" stroke-width="4" stroke-dasharray="10 6"/><path d="M14 65V52H27 M101 52H114V65 M114 63V76H101 M27 76H14V63" fill="none" stroke="#ffebba" stroke-width="3"/></g>
<g id="basement-near-focus" transform="translate(128 256)"><rect x="14" y="52" width="100" height="24" rx="3" fill="none" stroke="#4aced6" stroke-width="4" stroke-dasharray="10 6"/><path d="M14 65V52H27 M101 52H114V65 M114 63V76H101 M27 76H14V63" fill="none" stroke="#ffebba" stroke-width="3"/><rect x="6" y="44" width="116" height="40" fill="none" stroke="#4aced6" stroke-width="3" stroke-dasharray="18 8"/></g>
<g id="basement-preview-valid" transform="translate(256 256)"><rect x="14" y="52" width="100" height="24" rx="3" fill="none" stroke="#5be1ac" stroke-width="4" stroke-dasharray="10 6"/><path d="M14 65V52H27 M101 52H114V65 M114 63V76H101 M27 76H14V63" fill="none" stroke="#ffebba" stroke-width="3"/><path d="M54 60L64 70L74 60 M54 76L64 86L74 76" fill="none" stroke="#5be1ac" stroke-width="4"/></g>
<g id="basement-invalid" transform="translate(384 256)"><rect x="14" y="52" width="100" height="24" rx="3" fill="none" stroke="#ff5b5b" stroke-width="4" stroke-dasharray="10 6"/><path d="M14 65V52H27 M101 52H114V65 M114 63V76H101 M27 76H14V63" fill="none" stroke="#ffebba" stroke-width="3"/><path d="M20 58L108 70 M108 58L20 70" stroke="#ff5b5b" stroke-width="5"/></g>
</svg>
